<svg width="32" height="32" viewBox="0 0 32 32" fill="none" xmlns="http://www.w3.org/2000/svg">
<path d="M2.88551 24.2852C2.98272 24.7074 3.18925 25.0967 3.48439 25.4139C3.77952 25.7311 4.15289 25.9652 4.56704 26.0926L4.81906 27.2H4.79806V30H27.1998V27.2H8.55455C8.57293 27.0706 8.56961 26.9391 8.54475 26.8108L8.27032 25.6026L22.7712 22.3042L23.0457 23.5124C23.1188 23.8329 23.3162 24.1113 23.5944 24.2864C23.8727 24.4615 24.2091 24.519 24.5298 24.4462L25.7381 24.1704C25.8969 24.1344 26.047 24.0674 26.18 23.9733C26.3129 23.8792 26.4259 23.7598 26.5127 23.622C26.5994 23.4841 26.6581 23.3306 26.6854 23.17C26.7128 23.0095 26.7082 22.8452 26.6719 22.6864L26.3205 21.1422C26.945 20.5598 27.2586 19.6778 27.0556 18.786L26.2295 15.16C26.1293 14.7232 25.9118 14.3219 25.6004 13.9995C25.2891 13.6771 24.8957 13.4457 24.4626 13.3302L21.5938 8.601C21.1707 7.90617 20.5401 7.36171 19.791 7.04446C19.0419 6.7272 18.2121 6.65317 17.4186 6.8328L6.40258 9.3388C5.60827 9.51872 4.89081 9.94419 4.35198 10.5548C3.81315 11.1655 3.48033 11.9303 3.40075 12.7408L2.85891 18.2456C2.51906 18.5374 2.26518 18.9163 2.12456 19.3415C1.98395 19.7668 1.96192 20.2224 2.06085 20.6592L2.88551 24.2852ZM7.11383 23.322C6.87582 23.3762 6.62946 23.3831 6.3888 23.3421C6.14815 23.3011 5.91793 23.2132 5.71127 23.0832C5.50462 22.9533 5.32558 22.7839 5.18439 22.5848C5.04319 22.3857 4.9426 22.1607 4.88836 21.9227C4.83412 21.6847 4.82729 21.4384 4.86827 21.1977C4.90924 20.9571 4.99721 20.7269 5.12716 20.5202C5.2571 20.3136 5.42648 20.1346 5.62562 19.9934C5.82476 19.8522 6.04976 19.7516 6.28777 19.6974C6.76846 19.5879 7.27298 19.6738 7.69033 19.9362C8.10769 20.1986 8.4037 20.616 8.51324 21.0967C8.62279 21.5774 8.53689 22.0818 8.27445 22.4992C8.01201 22.9165 7.59452 23.2125 7.11383 23.322ZM22.8258 19.7492C22.5838 19.8157 22.3307 19.8326 22.0819 19.7987C21.8332 19.7648 21.5939 19.6808 21.3784 19.552C21.163 19.4231 20.9759 19.2519 20.8284 19.0487C20.6809 18.8456 20.576 18.6147 20.5202 18.3699C20.4644 18.1251 20.4587 17.8716 20.5035 17.6246C20.5484 17.3776 20.6427 17.1422 20.781 16.9327C20.9193 16.7231 21.0985 16.5437 21.308 16.4053C21.5175 16.2669 21.7528 16.1724 21.9998 16.1274C22.471 16.0416 22.9571 16.1409 23.3569 16.4046C23.7567 16.6683 24.0393 17.0762 24.1458 17.5431C24.2523 18.01 24.1745 18.5 23.9286 18.911C23.6827 19.322 23.2877 19.6223 22.8258 19.7492ZM7.02283 12.0688L18.0403 9.5614C18.261 9.51152 18.4919 9.53211 18.7003 9.62025C18.9088 9.7084 19.0844 9.85968 19.2024 10.0528L21.4215 13.711L20.6291 13.8916L6.56359 17.0934L5.76833 17.274L6.18696 13.0152C6.2095 12.7898 6.30232 12.5771 6.45231 12.4073C6.60231 12.2374 6.80188 12.119 7.02283 12.0688ZM24.9666 4.8L22.9995 2L22.2994 6.2L25.7997 11.8L30 13.2L27.1998 9.6454L30 8.3392L27.1998 7.033L30 2L24.9666 4.8Z" fill="#33835C"/>
</svg>
