<svg width="40" height="40" viewBox="0 0 40 40" fill="none" xmlns="http://www.w3.org/2000/svg">
<rect width="40" height="40" rx="20" fill="#33835C" fill-opacity="0.1"/>
<path d="M28.1514 16.7054C27.8367 15.9669 27.2448 15.3813 26.5029 15.0747C26.4492 15.0516 26.4034 15.0131 26.3712 14.9642C26.339 14.9153 26.3219 14.8581 26.3219 14.7996C26.3215 14.7577 26.3297 14.7163 26.346 14.6777C26.3624 14.6392 26.3864 14.6044 26.4167 14.5756C26.4353 14.5579 26.4529 14.5406 26.4662 14.5266C26.56 14.4279 26.6428 14.3192 26.7131 14.2025C26.8979 13.8942 26.9895 13.539 26.9769 13.1798C26.9643 12.8205 26.848 12.4726 26.642 12.178C26.436 11.8834 26.1492 11.6547 25.8161 11.5195C25.4831 11.3843 25.118 11.3484 24.7649 11.4162C24.4052 11.4791 24.0727 11.6489 23.8108 11.9034C23.5489 12.1579 23.3695 12.4853 23.2962 12.843C23.2284 13.1511 23.2399 13.4713 23.3297 13.7737C23.4195 14.0761 23.5847 14.3507 23.8097 14.5718C23.8402 14.6007 23.8646 14.6354 23.8816 14.6739C23.8985 14.7124 23.9076 14.7539 23.9082 14.796V14.7976C23.9087 14.8566 23.8918 14.9145 23.8596 14.9639C23.8273 15.0134 23.7812 15.0522 23.727 15.0755C23.5595 15.1458 23.3986 15.2307 23.2461 15.3293C23.5125 15.6387 23.7326 15.9851 23.8994 16.3578C24.1708 16.9726 24.3073 17.6385 24.2998 18.3105V18.7124C24.2985 18.938 24.2454 19.1602 24.1448 19.362H27.8272C27.9126 19.3621 27.9971 19.3453 28.0759 19.3126C28.1548 19.28 28.2264 19.2322 28.2867 19.1718C28.3471 19.1115 28.395 19.0399 28.4276 18.961C28.4603 18.8822 28.4771 18.7977 28.4771 18.7124V18.3104C28.4837 17.7584 28.3726 17.2112 28.1514 16.7054Z" fill="#33835C"/>
<path d="M14.7192 21.4668H12.6698C12.6269 21.4668 12.5845 21.4752 12.545 21.4916C12.5054 21.508 12.4695 21.532 12.4392 21.5623C12.4089 21.5926 12.3849 21.6285 12.3685 21.6681C12.3522 21.7076 12.3437 21.75 12.3438 21.7929V28.7871C12.3437 28.8299 12.3522 28.8723 12.3685 28.9119C12.3849 28.9514 12.4089 28.9874 12.4392 29.0177C12.4695 29.048 12.5054 29.072 12.545 29.0884C12.5845 29.1048 12.6269 29.1132 12.6698 29.1132H14.7192C14.8125 29.1132 14.9049 29.0948 14.9912 29.0591C15.0774 29.0234 15.1558 28.9711 15.2218 28.9051C15.2878 28.839 15.3402 28.7607 15.3759 28.6744C15.4116 28.5882 15.43 28.4958 15.43 28.4024V22.1774C15.43 22.0841 15.4116 21.9917 15.3759 21.9054C15.3401 21.8192 15.2878 21.7409 15.2218 21.6749C15.1558 21.6089 15.0774 21.5566 14.9912 21.5209C14.9049 21.4851 14.8125 21.4668 14.7192 21.4668Z" fill="#33835C"/>
<path d="M27.6013 22.3018C27.493 22.1369 27.3453 22.0015 27.1716 21.9079C26.9978 21.8143 26.8035 21.7654 26.6062 21.7656H25.803C25.4584 21.7649 25.1214 21.8669 24.8351 22.0585C24.5487 22.2501 24.3259 22.5227 24.1951 22.8415C24.1174 23.0269 24.0092 23.1979 23.875 23.3474C23.6469 23.6976 23.3383 23.9882 22.9749 24.1947C22.6115 24.4013 22.204 24.5178 21.7864 24.5346L19.4075 24.5348C19.2956 24.5348 19.1883 24.4903 19.1092 24.4112C19.0301 24.3321 18.9857 24.2248 18.9857 24.1129C18.9857 24.001 19.0301 23.8937 19.1092 23.8146C19.1883 23.7355 19.2956 23.691 19.4075 23.691H21.7751C22.0793 23.6832 22.3748 23.5882 22.6265 23.4171V23.4028C22.6273 23.1881 22.5857 22.9754 22.5042 22.7768C22.4226 22.5782 22.3026 22.3977 22.1511 22.2456C21.9996 22.0935 21.8195 21.9728 21.6213 21.8904C21.423 21.8081 21.2104 21.7657 20.9957 21.7656H19.2501C18.9312 21.7647 18.6152 21.8269 18.3203 21.9487C18.0255 22.0704 17.7577 22.2493 17.5323 22.475L17.4877 22.5194C17.1575 22.8492 16.7334 23.0689 16.2734 23.1484V27.8083H22.6395C23.5834 27.8089 24.5067 27.5324 25.295 27.0132C26.0832 26.494 26.7017 25.7549 27.0739 24.8874L27.701 23.4278C27.7792 23.2466 27.811 23.0488 27.7936 22.8522C27.7762 22.6556 27.7102 22.4665 27.6013 22.3018Z" fill="#33835C"/>
<path d="M11.7132 18.3147C11.7066 17.7624 11.8173 17.2151 12.0382 16.7088C12.3523 15.9697 12.944 15.3833 13.686 15.0759C13.7402 15.0526 13.7863 15.0138 13.8186 14.9643C13.8508 14.9149 13.8678 14.857 13.8672 14.798V14.7964C13.8666 14.7543 13.8575 14.7128 13.8406 14.6743C13.8237 14.6358 13.7992 14.6011 13.7687 14.5721C13.5437 14.3511 13.3785 14.0765 13.2887 13.7741C13.1988 13.4717 13.1873 13.1515 13.2551 12.8434C13.3284 12.4857 13.5077 12.1583 13.7697 11.9038C14.0316 11.6493 14.3641 11.4795 14.7238 11.4165C15.1111 11.3418 15.5121 11.392 15.869 11.56C16.2259 11.7279 16.5202 12.0049 16.7095 12.351C16.8988 12.697 16.9732 13.0943 16.9221 13.4854C16.871 13.8765 16.697 14.2412 16.4251 14.527C16.4118 14.541 16.3941 14.5583 16.3756 14.576C16.3453 14.6048 16.3213 14.6396 16.3049 14.6781C16.2886 14.7166 16.2804 14.7581 16.2808 14.8C16.2808 14.8585 16.2979 14.9158 16.3301 14.9647C16.3623 15.0136 16.4081 15.052 16.4619 15.0751C17.2037 15.3818 17.7957 15.9673 18.1103 16.7058C18.3315 17.2117 18.4425 17.7588 18.4359 18.3109V18.7128C18.4358 18.8851 18.3674 19.0503 18.2456 19.1721C18.1237 19.294 17.9585 19.3624 17.7862 19.3624H12.3628C12.1905 19.3624 12.0253 19.294 11.9035 19.1721C11.7816 19.0503 11.7132 18.8851 11.7132 18.7128V18.3147Z" fill="#33835C"/>
<path d="M23.1318 16.7053C22.8171 15.9668 22.2252 15.3813 21.4834 15.0747C21.4296 15.0516 21.3837 15.0132 21.3515 14.9643C21.3193 14.9154 21.3021 14.8581 21.3021 14.7995C21.3018 14.7577 21.31 14.7162 21.3263 14.6777C21.3426 14.6391 21.3667 14.6043 21.397 14.5755C21.4155 14.5578 21.4332 14.5405 21.4465 14.5265C21.5403 14.4278 21.6231 14.3191 21.6933 14.2024C21.8781 13.8941 21.9697 13.5389 21.9571 13.1797C21.9445 12.8205 21.8282 12.4726 21.6222 12.178C21.4163 11.8835 21.1295 11.6548 20.7964 11.5196C20.4634 11.3844 20.0984 11.3484 19.7453 11.4161C19.3856 11.4791 19.0532 11.6489 18.7912 11.9034C18.5293 12.1578 18.35 12.4852 18.2766 12.843C18.2088 13.1511 18.2203 13.4713 18.3101 13.7737C18.4 14.076 18.5651 14.3506 18.7901 14.5717C18.8206 14.6007 18.8451 14.6354 18.862 14.6739C18.8789 14.7124 18.888 14.7539 18.8886 14.796V14.7975C18.8892 14.8566 18.8722 14.9144 18.84 14.9639C18.8077 15.0133 18.7616 15.0522 18.7074 15.0755C18.5399 15.1457 18.379 15.2307 18.2266 15.3292C18.493 15.6386 18.713 15.9851 18.8797 16.3577C19.1511 16.9726 19.2876 17.6384 19.2802 18.3104V18.7124C19.2789 18.9379 19.2258 19.1601 19.1252 19.362H22.8077C22.893 19.362 22.9775 19.3452 23.0563 19.3125C23.1351 19.2799 23.2067 19.232 23.2671 19.1717C23.3274 19.1114 23.3753 19.0398 23.4079 18.9609C23.4405 18.8821 23.4573 18.7977 23.4573 18.7123V18.3104C23.464 17.7583 23.353 17.2112 23.1318 16.7053Z" fill="#33835C"/>
</svg>
