<svg width="24" height="24" viewBox="0 0 24 24" fill="none" xmlns="http://www.w3.org/2000/svg">
<rect width="24" height="24" fill="#1E1E1E"/>
<g id="&#216;&#167;&#217;&#132;&#216;&#178;&#216;&#167;&#216;&#166;&#216;&#177;">
<path d="M-2623 -2291C-2623 -2401.46 -2533.46 -2491 -2423 -2491H8948C9058.46 -2491 9148 -2401.46 9148 -2291V2994C9148 3104.46 9058.46 3194 8948 3194H-2423C-2533.46 3194 -2623 3104.46 -2623 2994V-2291Z" fill="#404040"/>
<path d="M-2423 -2490H8948V-2492H-2423V-2490ZM9147 -2291V2994H9149V-2291H9147ZM8948 3193H-2423V3195H8948V3193ZM-2622 2994V-2291H-2624V2994H-2622ZM-2423 3193C-2532.9 3193 -2622 3103.9 -2622 2994H-2624C-2624 3105.01 -2534.01 3195 -2423 3195V3193ZM9147 2994C9147 3103.9 9057.9 3193 8948 3193V3195C9059.01 3195 9149 3105.01 9149 2994H9147ZM8948 -2490C9057.9 -2490 9147 -2400.9 9147 -2291H9149C9149 -2402.01 9059.01 -2492 8948 -2492V-2490ZM-2423 -2492C-2534.01 -2492 -2624 -2402.01 -2624 -2291H-2622C-2622 -2400.9 -2532.9 -2490 -2423 -2490V-2492Z" fill="white" fill-opacity="0.1"/>
<g id="&#216;&#170;&#216;&#181;&#217;&#134;&#217;&#138;&#217;&#129; &#216;&#167;&#217;&#132;&#216;&#168;&#217;&#132;&#216;&#167;&#216;&#186;">
<rect x="-75" y="-1234" width="1440" height="1341" rx="20" fill="#FDFDFD"/>
<g id="Frame 26087141">
<rect x="-15" y="-12" width="100" height="48" rx="10" fill="#33835C"/>
<g id="Group 1000011262">
<g id="arrow-left">
<g id="vuesax/linear/arrow-left">
<g id="arrow-left_2">
<path id="Vector" d="M9.57 5.92969L3.5 11.9997L9.57 18.0697" stroke="white" stroke-width="1.5" stroke-miterlimit="10" stroke-linecap="round" stroke-linejoin="round"/>
<path id="Vector_2" d="M20.5 12H3.67004" stroke="white" stroke-width="1.5" stroke-miterlimit="10" stroke-linecap="round" stroke-linejoin="round"/>
</g>
</g>
</g>
</g>
</g>
</g>
</g>
</svg>
