<svg width="40" height="40" viewBox="0 0 40 40" fill="none" xmlns="http://www.w3.org/2000/svg">
<rect width="40" height="40" rx="20" fill="#33835C" fill-opacity="0.1"/>
<g clip-path="url(#clip0_1365_15425)">
<path d="M29 14.375C29 13.7397 28.8207 13.1172 28.4826 12.5793C28.1446 12.0413 27.6616 11.6097 27.0891 11.3341C26.5167 11.0585 25.8781 10.9501 25.2467 11.0213C24.6154 11.0925 24.017 11.3404 23.5203 11.7366C23.0237 12.1329 22.6489 12.6612 22.4392 13.2609C22.2295 13.8607 22.1933 14.5074 22.3348 15.1268C22.4763 15.7461 22.7898 16.313 23.2392 16.7621C23.6885 17.2113 24.2556 17.5244 24.875 17.6656V17.75C24.875 18.1478 24.717 18.5293 24.4357 18.8106C24.1544 19.092 23.7728 19.25 23.375 19.25H16.625C16.0984 19.2512 15.5813 19.3902 15.125 19.6531V17.6656C15.934 17.4812 16.6468 17.0053 17.1271 16.3287C17.6074 15.652 17.8216 14.8222 17.7288 13.9976C17.6361 13.1731 17.2428 12.4116 16.6241 11.8586C16.0055 11.3057 15.2048 11 14.375 11C13.5452 11 12.7446 11.3057 12.1259 11.8586C11.5072 12.4116 11.1139 13.1731 11.0212 13.9976C10.9284 14.8222 11.1426 15.652 11.6229 16.3287C12.1033 17.0053 12.816 17.4812 13.625 17.6656V22.3344C12.816 22.5188 12.1033 22.9947 11.6229 23.6713C11.1426 24.3479 10.9284 25.1778 11.0212 26.0023C11.1139 26.8269 11.5072 27.5884 12.1259 28.1413C12.7446 28.6943 13.5452 29 14.375 29C15.2048 29 16.0055 28.6943 16.6241 28.1413C17.2428 27.5884 17.6361 26.8269 17.7288 26.0023C17.8216 25.1778 17.6074 24.3479 17.1271 23.6713C16.6468 22.9947 15.934 22.5188 15.125 22.3344V22.25C15.125 21.8522 15.283 21.4706 15.5643 21.1893C15.8457 20.908 16.2272 20.75 16.625 20.75H23.375C24.1699 20.7475 24.9315 20.4307 25.4936 19.8686C26.0557 19.3065 26.3725 18.5449 26.375 17.75V17.6656C27.1198 17.4941 27.7847 17.0756 28.2613 16.4781C28.738 15.8806 28.9983 15.1393 29 14.375ZM12.5 14.375C12.5 14.0041 12.61 13.6416 12.816 13.3333C13.022 13.025 13.3149 12.7846 13.6575 12.6427C14.0001 12.5008 14.3771 12.4637 14.7408 12.536C15.1045 12.6084 15.4386 12.7869 15.7008 13.0492C15.9631 13.3114 16.1416 13.6455 16.214 14.0092C16.2863 14.3729 16.2492 14.7499 16.1073 15.0925C15.9654 15.4351 15.725 15.728 15.4167 15.934C15.1084 16.14 14.7458 16.25 14.375 16.25C13.8785 16.2475 13.403 16.0492 13.0519 15.6981C12.7008 15.347 12.5025 14.8715 12.5 14.375ZM16.25 25.625C16.25 25.9958 16.14 26.3583 15.934 26.6667C15.728 26.975 15.4352 27.2153 15.0925 27.3573C14.7499 27.4992 14.3729 27.5363 14.0092 27.464C13.6455 27.3916 13.3114 27.213 13.0492 26.9508C12.787 26.6886 12.6084 26.3545 12.536 25.9908C12.4637 25.6271 12.5008 25.2501 12.6427 24.9075C12.7846 24.5648 13.025 24.272 13.3333 24.066C13.6417 23.86 14.0042 23.75 14.375 23.75C14.8715 23.7525 15.347 23.9508 15.6981 24.3019C16.0492 24.653 16.2475 25.1285 16.25 25.625Z" fill="#33835C"/>
</g>
<defs>
<clipPath id="clip0_1365_15425">
<rect width="24" height="24" fill="white" transform="translate(8 8)"/>
</clipPath>
</defs>
</svg>
