<svg width="40" height="40" viewBox="0 0 40 40" fill="none" xmlns="http://www.w3.org/2000/svg">
<rect width="40" height="40" rx="20" fill="#33835C" fill-opacity="0.1"/>
<path d="M23.9582 12.967V11.667C23.9582 11.3253 23.6749 11.042 23.3332 11.042C22.9915 11.042 22.7082 11.3253 22.7082 11.667V12.917H17.2915V11.667C17.2915 11.3253 17.0082 11.042 16.6665 11.042C16.3249 11.042 16.0415 11.3253 16.0415 11.667V12.967C13.7915 13.1753 12.6999 14.517 12.5332 16.5087C12.5165 16.7503 12.7165 16.9503 12.9499 16.9503H27.0499C27.2915 16.9503 27.4915 16.742 27.4665 16.5087C27.2999 14.517 26.2082 13.1753 23.9582 12.967Z" fill="#33835C"/>
<path d="M26.6667 18.2002H13.3333C12.875 18.2002 12.5 18.5752 12.5 19.0335V24.1669C12.5 26.6669 13.75 28.3335 16.6667 28.3335H23.3333C26.25 28.3335 27.5 26.6669 27.5 24.1669V19.0335C27.5 18.5752 27.125 18.2002 26.6667 18.2002ZM17.675 25.1752C17.6333 25.2085 17.5917 25.2502 17.55 25.2752C17.5 25.3085 17.45 25.3335 17.4 25.3502C17.35 25.3752 17.3 25.3919 17.25 25.4002C17.1917 25.4085 17.1417 25.4169 17.0833 25.4169C16.975 25.4169 16.8667 25.3919 16.7667 25.3502C16.6583 25.3085 16.575 25.2502 16.4917 25.1752C16.3417 25.0169 16.25 24.8002 16.25 24.5835C16.25 24.3669 16.3417 24.1502 16.4917 23.9919C16.575 23.9169 16.6583 23.8585 16.7667 23.8169C16.9167 23.7502 17.0833 23.7335 17.25 23.7669C17.3 23.7752 17.35 23.7919 17.4 23.8169C17.45 23.8335 17.5 23.8585 17.55 23.8919C17.5917 23.9252 17.6333 23.9585 17.675 23.9919C17.825 24.1502 17.9167 24.3669 17.9167 24.5835C17.9167 24.8002 17.825 25.0169 17.675 25.1752ZM17.675 22.2585C17.5167 22.4085 17.3 22.5002 17.0833 22.5002C16.8667 22.5002 16.65 22.4085 16.4917 22.2585C16.3417 22.1002 16.25 21.8835 16.25 21.6669C16.25 21.4502 16.3417 21.2335 16.4917 21.0752C16.725 20.8419 17.0917 20.7669 17.4 20.9002C17.5083 20.9419 17.6 21.0002 17.675 21.0752C17.825 21.2335 17.9167 21.4502 17.9167 21.6669C17.9167 21.8835 17.825 22.1002 17.675 22.2585ZM20.5917 25.1752C20.4333 25.3252 20.2167 25.4169 20 25.4169C19.7833 25.4169 19.5667 25.3252 19.4083 25.1752C19.2583 25.0169 19.1667 24.8002 19.1667 24.5835C19.1667 24.3669 19.2583 24.1502 19.4083 23.9919C19.7167 23.6835 20.2833 23.6835 20.5917 23.9919C20.7417 24.1502 20.8333 24.3669 20.8333 24.5835C20.8333 24.8002 20.7417 25.0169 20.5917 25.1752ZM20.5917 22.2585C20.55 22.2919 20.5083 22.3252 20.4667 22.3585C20.4167 22.3919 20.3667 22.4169 20.3167 22.4335C20.2667 22.4585 20.2167 22.4752 20.1667 22.4835C20.1083 22.4919 20.0583 22.5002 20 22.5002C19.7833 22.5002 19.5667 22.4085 19.4083 22.2585C19.2583 22.1002 19.1667 21.8835 19.1667 21.6669C19.1667 21.4502 19.2583 21.2335 19.4083 21.0752C19.4833 21.0002 19.575 20.9419 19.6833 20.9002C19.9917 20.7669 20.3583 20.8419 20.5917 21.0752C20.7417 21.2335 20.8333 21.4502 20.8333 21.6669C20.8333 21.8835 20.7417 22.1002 20.5917 22.2585ZM23.5083 25.1752C23.35 25.3252 23.1333 25.4169 22.9167 25.4169C22.7 25.4169 22.4833 25.3252 22.325 25.1752C22.175 25.0169 22.0833 24.8002 22.0833 24.5835C22.0833 24.3669 22.175 24.1502 22.325 23.9919C22.6333 23.6835 23.2 23.6835 23.5083 23.9919C23.6583 24.1502 23.75 24.3669 23.75 24.5835C23.75 24.8002 23.6583 25.0169 23.5083 25.1752ZM23.5083 22.2585C23.4667 22.2919 23.425 22.3252 23.3833 22.3585C23.3333 22.3919 23.2833 22.4169 23.2333 22.4335C23.1833 22.4585 23.1333 22.4752 23.0833 22.4835C23.025 22.4919 22.9667 22.5002 22.9167 22.5002C22.7 22.5002 22.4833 22.4085 22.325 22.2585C22.175 22.1002 22.0833 21.8835 22.0833 21.6669C22.0833 21.4502 22.175 21.2335 22.325 21.0752C22.4083 21.0002 22.4917 20.9419 22.6 20.9002C22.75 20.8335 22.9167 20.8169 23.0833 20.8502C23.1333 20.8585 23.1833 20.8752 23.2333 20.9002C23.2833 20.9169 23.3333 20.9419 23.3833 20.9752C23.425 21.0085 23.4667 21.0419 23.5083 21.0752C23.6583 21.2335 23.75 21.4502 23.75 21.6669C23.75 21.8835 23.6583 22.1002 23.5083 22.2585Z" fill="#33835C"/>
</svg>
