<svg width="32" height="32" viewBox="0 0 32 32" fill="none" xmlns="http://www.w3.org/2000/svg">
<path d="M29.8986 16.9533C29.6886 14.0488 29.3426 13.4832 29.2119 13.2704C28.9115 12.7788 28.4307 12.4575 27.922 12.1204C27.8932 12.1017 27.8684 12.075 27.8494 12.0424C27.8305 12.0098 27.8179 11.9722 27.8128 11.9326C27.8076 11.893 27.81 11.8525 27.8198 11.8143C27.8295 11.776 27.8463 11.7411 27.8689 11.7122C27.9631 11.5945 28.0355 11.453 28.0811 11.2976C28.1268 11.1421 28.1445 10.9763 28.1332 10.8116C28.1112 10.5195 28.001 10.2482 27.8243 10.0516C27.6476 9.85496 27.4174 9.74731 27.1793 9.75H26.2692C26.2302 9.75028 26.1912 9.75341 26.1525 9.75934C26.1259 9.74515 26.0984 9.73384 26.0702 9.72556C25.5311 8.32184 24.7931 6.39991 23.2634 5.46194C20.9945 4.07187 16.8149 4 15.9981 4C15.1813 4 11.0017 4.07187 8.73566 5.45978C7.20594 6.39775 6.46791 8.31969 5.92884 9.72341L5.92417 9.73491C5.89728 9.73957 5.87088 9.74776 5.84541 9.75934C5.80669 9.75341 5.76773 9.75028 5.72872 9.75H4.81684C4.57874 9.74731 4.34852 9.85496 4.17183 10.0516C3.99514 10.2482 3.88489 10.5195 3.86295 10.8116C3.85258 10.9759 3.87115 11.1411 3.91736 11.2958C3.96358 11.4505 4.03636 11.591 4.13074 11.7079C4.15331 11.7368 4.17014 11.7717 4.17988 11.81C4.18961 11.8482 4.192 11.8887 4.18686 11.9283C4.18171 11.9679 4.16916 12.0055 4.15021 12.0381C4.13126 12.0707 4.10642 12.0974 4.07765 12.1161C3.5689 12.4554 3.08583 12.7767 2.78771 13.2661C2.65702 13.4817 2.31164 14.0445 2.10102 16.949C1.98434 18.5834 1.96684 20.2754 2.05843 21.365C2.25038 23.6291 2.61035 24.9976 2.62552 25.0543C2.68075 25.261 2.78243 25.4441 2.91875 25.5824C3.05506 25.7206 3.22042 25.8085 3.39563 25.8356V25.85C3.39563 26.155 3.49398 26.4475 3.66904 26.6632C3.8441 26.8788 4.08153 27 4.3291 27H7.59625C7.84382 27 8.08125 26.8788 8.25631 26.6632C8.43137 26.4475 8.52972 26.155 8.52972 25.85C9.03204 25.85 9.38151 25.7393 9.75198 25.6214C10.2868 25.4439 10.8336 25.3258 11.3856 25.2685C13.1656 25.0594 14.9357 24.9875 15.9981 24.9875C17.0389 24.9875 18.8872 25.0594 20.6701 25.2685C21.2243 25.3259 21.7731 25.4445 22.3101 25.6229C22.6648 25.735 23.0014 25.8385 23.4676 25.8493C23.4676 26.1543 23.5659 26.4468 23.741 26.6625C23.916 26.8781 24.1535 26.9993 24.4011 26.9993H27.6682C27.9158 26.9993 28.1532 26.8781 28.3283 26.6625C28.5033 26.4468 28.6017 26.1543 28.6017 25.8493V25.8407C28.7773 25.814 28.9432 25.7264 29.0799 25.5881C29.2167 25.4498 29.3187 25.2664 29.3741 25.0594C29.3893 25.0026 29.7493 23.6341 29.9412 21.37C30.0328 20.2797 30.0165 18.5906 29.8986 16.9533ZM7.61608 10.7067C8.08282 9.48478 8.61665 8.10191 9.56704 7.519C10.9404 6.67663 13.7869 6.29712 15.9981 6.29712C18.2092 6.29712 21.0557 6.67375 22.4291 7.519C23.3795 8.10191 23.911 9.4855 24.3801 10.7067L24.4384 10.8626C24.4725 10.9514 24.4876 11.0495 24.4822 11.1475C24.4768 11.2455 24.4511 11.3402 24.4076 11.4225C24.3641 11.5048 24.3041 11.572 24.2336 11.6177C24.163 11.6634 24.084 11.686 24.0043 11.6834C22.0656 11.6187 17.9817 11.4117 15.9981 11.4117C14.0144 11.4117 9.93051 11.6238 7.98889 11.6885C7.90918 11.691 7.83026 11.6684 7.75966 11.6227C7.68907 11.577 7.62915 11.5098 7.58562 11.4275C7.54209 11.3452 7.51641 11.2506 7.51102 11.1525C7.50563 11.0545 7.52071 10.9564 7.55482 10.8677C7.57524 10.8145 7.59683 10.7606 7.61608 10.7067ZM8.3121 16.4301C7.30851 16.5789 6.29849 16.6523 5.28766 16.65C4.66923 16.65 4.03156 16.4344 3.91312 15.7559C3.83203 15.2995 3.84078 15.0429 3.88453 14.7848C3.92129 14.5656 3.97963 14.4061 4.27134 14.35C5.02979 14.2063 5.45393 14.3867 6.69545 14.8373C7.51865 15.1356 8.11257 15.5331 8.45096 15.8479C8.62073 16.0031 8.5303 16.4085 8.3121 16.4301ZM21.2278 22.3238C20.4601 22.4316 18.9245 22.3921 16.0156 22.3921C13.1066 22.3921 11.5717 22.4316 10.8039 22.3238C10.0116 22.2153 9.0017 21.2924 9.6913 20.4702C10.1505 19.9282 11.2216 19.5228 12.6481 19.295C14.0745 19.0672 14.6784 18.95 16.0097 18.95C17.3411 18.95 17.8837 19.0219 19.3714 19.2957C20.8591 19.5696 21.9834 19.98 22.3282 20.4709C22.9571 21.3506 22.0195 22.2095 21.2278 22.3281V22.3238ZM28.083 15.7552C27.9663 16.4365 27.3246 16.6493 26.7085 16.6493C25.6783 16.6496 24.649 16.5761 23.6257 16.4293C23.4472 16.4085 23.3643 16.0225 23.5452 15.8472C23.8783 15.5244 24.4786 15.1349 25.3007 14.8366C26.5422 14.3859 27.2581 14.2055 27.873 14.3558C28.0229 14.3924 28.1023 14.5908 28.1116 14.7151C28.1527 15.0614 28.1431 15.4139 28.083 15.7559V15.7552Z" fill="#33835C"/>
</svg>
