<svg width="32" height="32" viewBox="0 0 32 32" fill="none" xmlns="http://www.w3.org/2000/svg">
<g id="vuesax/bold/coin">
<g id="coin">
<path id="Vector" d="M29.2271 22.3335C28.7871 25.8801 25.8805 28.7868 22.3338 29.2268C20.1871 29.4935 18.1871 28.9068 16.6271 27.7601C15.7338 27.1068 15.9471 25.7201 17.0138 25.4001C21.0271 24.1868 24.1871 21.0135 25.4138 17.0001C25.7338 15.9468 27.1205 15.7335 27.7738 16.6135C28.9071 18.1868 29.4938 20.1868 29.2271 22.3335Z" fill="#33835C"/>
<path id="Vector_2" d="M13.3203 2.66699C7.44033 2.66699 2.66699 7.44033 2.66699 13.3203C2.66699 19.2003 7.44033 23.9737 13.3203 23.9737C19.2003 23.9737 23.9737 19.2003 23.9737 13.3203C23.9603 7.44033 19.2003 2.66699 13.3203 2.66699ZM12.067 11.827L15.2803 12.947C16.4403 13.3603 17.0003 14.1737 17.0003 15.427C17.0003 16.867 15.8537 18.0537 14.4537 18.0537H14.3337V18.1203C14.3337 18.667 13.8803 19.1203 13.3337 19.1203C12.787 19.1203 12.3337 18.667 12.3337 18.1203V18.0403C10.8537 17.9737 9.66699 16.7337 9.66699 15.187C9.66699 14.6403 10.1203 14.187 10.667 14.187C11.2137 14.187 11.667 14.6403 11.667 15.187C11.667 15.667 12.0137 16.0537 12.4403 16.0537H14.4403C14.747 16.0537 14.987 15.7737 14.987 15.427C14.987 14.9603 14.907 14.9337 14.6003 14.827L11.387 13.707C10.2403 13.307 9.66699 12.4937 9.66699 11.227C9.66699 9.78699 10.8137 8.60033 12.2137 8.60033H12.3337V8.54699C12.3337 8.00033 12.787 7.54699 13.3337 7.54699C13.8803 7.54699 14.3337 8.00033 14.3337 8.54699V8.62699C15.8137 8.69366 17.0003 9.93366 17.0003 11.4803C17.0003 12.027 16.547 12.4803 16.0003 12.4803C15.4537 12.4803 15.0003 12.027 15.0003 11.4803C15.0003 11.0003 14.6537 10.6137 14.227 10.6137H12.227C11.9203 10.6137 11.6803 10.8937 11.6803 11.2403C11.667 11.6937 11.747 11.7203 12.067 11.827Z" fill="#33835C"/>
</g>
</g>
</svg>
