<svg width="40" height="40" viewBox="0 0 40 40" fill="none" xmlns="http://www.w3.org/2000/svg">
<rect width="40" height="40" rx="20" fill="#33835C" fill-opacity="0.1"/>
<path d="M19.5556 10L11.2222 15.5556H27.8889L19.5556 10ZM12.3333 16.6667C11.7178 16.6667 11.2222 17.1622 11.2222 17.7778V25.5556L9.27778 28.8889C9.11296 29.1715 9 29.2852 9 29.4444C9 30 9.70183 30 10.1111 30H29C29.3944 30 30.1111 30 30.1111 29.4444C30.1111 29.282 30.0149 29.2001 29.8333 28.8889L27.8889 25.5556V17.7778C27.8889 17.1622 27.3933 16.6667 26.7778 16.6667H12.3333ZM14.5556 18.8889C15.1711 18.8889 15.5655 19.3928 15.6667 20V26.6667H13.4444V24.4444V20C13.4444 19.3844 13.94 18.8889 14.5556 18.8889ZM19.5556 18.8889C20.1711 18.8889 20.6763 19.3845 20.6667 20V24.4444V26.6667H18.4444V24.4444V20C18.4444 19.3844 18.94 18.8889 19.5556 18.8889ZM24.5556 18.8889C25.1711 18.8889 25.6667 19.3844 25.6667 20V26.6667H23.4444V24.4444V20C23.4444 19.3844 23.94 18.8889 24.5556 18.8889Z" fill="#33835C"/>
</svg>
