<svg width="20" height="22" viewBox="0 0 20 22" fill="none" xmlns="http://www.w3.org/2000/svg">
<g clip-path="url(#clip0_1340_8003)">
<path d="M2.27799 19.8785C2.34486 20.9359 3.26351 21.7941 4.32866 21.7941H14.8517C15.9168 21.7941 16.8351 20.9359 16.9024 19.8785L17.8095 5.44791H1.36996L2.27799 19.8785ZM18.4945 1.36137H13.6996L13.2039 0.375496C13.0879 0.144777 12.8507 -0.000976562 12.5912 -0.000976562H6.58867C6.32919 -0.000976562 6.09206 0.144777 5.97604 0.375496L5.47985 1.36137H0.684982C0.306701 1.36137 0 1.66625 0 2.04246V3.40464C0 3.78077 0.306701 4.08573 0.684982 4.08573H18.4945C18.8729 4.08573 19.1795 3.78077 19.1795 3.40464V2.04246C19.1795 1.66616 18.8712 1.36137 18.4945 1.36137Z" fill="#EE1E1E"/>
</g>
<defs>
<clipPath id="clip0_1340_8003">
<rect width="19.1795" height="21.7949" fill="white" transform="translate(0 -0.000976562)"/>
</clipPath>
</defs>
</svg>
