<svg width="32" height="32" viewBox="0 0 32 32" fill="none" xmlns="http://www.w3.org/2000/svg">
<path d="M26.72 9.09358L19.04 3.72024C16.9467 2.25358 13.7333 2.33358 11.72 3.89358L5.03999 9.10691C3.70665 10.1469 2.65332 12.2802 2.65332 13.9602V23.1602C2.65332 26.5602 5.41332 29.3336 8.81332 29.3336H23.1867C26.5867 29.3336 29.3467 26.5736 29.3467 23.1736V14.1336C29.3467 12.3336 28.1867 10.1202 26.72 9.09358ZM22.5067 21.5869C22.5067 21.7069 22.48 21.8269 22.44 21.9469C22.3467 22.1736 22.16 22.3602 21.9333 22.4536C21.8133 22.5069 21.6933 22.5202 21.5733 22.5202H19.0933C18.5733 22.5202 18.16 22.1069 18.16 21.5869C18.16 21.0669 18.5733 20.6536 19.0933 20.6536H19.3333L16.52 17.8402L15.16 19.8669C15 20.0936 14.76 20.2536 14.48 20.2802C14.1867 20.3069 13.9333 20.2136 13.7333 20.0136L9.75999 16.0402C9.39999 15.6802 9.39999 15.0936 9.75999 14.7202C10.12 14.3469 10.7067 14.3602 11.08 14.7202L14.2533 17.8936L15.6133 15.8669C15.7733 15.6402 16.0133 15.4802 16.2933 15.4536C16.5867 15.4269 16.84 15.5202 17.04 15.7202L20.6667 19.3469V19.1069C20.6667 18.5869 21.08 18.1736 21.6 18.1736C22.12 18.1736 22.5333 18.5869 22.5333 19.1069V21.5869H22.5067Z" fill="#33835C"/>
</svg>
