<svg width="32" height="32" viewBox="0 0 32 32" fill="none" xmlns="http://www.w3.org/2000/svg">
<path d="M9.33342 2.66699H8.00008C4.00008 2.66699 2.66675 5.05366 2.66675 8.00033V9.33366V28.0003C2.66675 29.107 3.92008 29.7337 4.80008 29.067L7.08008 27.3603C7.61341 26.9603 8.36008 27.0137 8.84008 27.4937L11.0534 29.7203C11.5734 30.2403 12.4267 30.2403 12.9467 29.7203L15.1867 27.4803C15.6534 27.0137 16.4001 26.9603 16.9201 27.3603L19.2001 29.067C20.0801 29.7203 21.3334 29.0937 21.3334 28.0003V5.33366C21.3334 3.86699 22.5334 2.66699 24.0001 2.66699H9.33342ZM7.96008 18.6803C7.22675 18.6803 6.62675 18.0803 6.62675 17.347C6.62675 16.6137 7.22675 16.0137 7.96008 16.0137C8.69341 16.0137 9.29341 16.6137 9.29341 17.347C9.29341 18.0803 8.69341 18.6803 7.96008 18.6803ZM7.96008 13.347C7.22675 13.347 6.62675 12.747 6.62675 12.0137C6.62675 11.2803 7.22675 10.6803 7.96008 10.6803C8.69341 10.6803 9.29341 11.2803 9.29341 12.0137C9.29341 12.747 8.69341 13.347 7.96008 13.347ZM16.0001 18.347H12.0001C11.4534 18.347 11.0001 17.8937 11.0001 17.347C11.0001 16.8003 11.4534 16.347 12.0001 16.347H16.0001C16.5467 16.347 17.0001 16.8003 17.0001 17.347C17.0001 17.8937 16.5467 18.347 16.0001 18.347ZM16.0001 13.0137H12.0001C11.4534 13.0137 11.0001 12.5603 11.0001 12.0137C11.0001 11.467 11.4534 11.0137 12.0001 11.0137H16.0001C16.5467 11.0137 17.0001 11.467 17.0001 12.0137C17.0001 12.5603 16.5467 13.0137 16.0001 13.0137Z" fill="#33835C"/>
<path d="M24.0133 2.66699V4.66699C24.8933 4.66699 25.7333 5.02699 26.3466 5.62699C26.9866 6.28033 27.3333 7.12033 27.3333 8.00033V11.227C27.3333 12.2137 26.8933 12.667 25.8933 12.667H23.3333V5.34699C23.3333 4.97366 23.6399 4.66699 24.0133 4.66699V2.66699ZM24.0133 2.66699C22.5333 2.66699 21.3333 3.86699 21.3333 5.34699V14.667H25.8933C27.9999 14.667 29.3333 13.3337 29.3333 11.227V8.00033C29.3333 6.53366 28.7333 5.20033 27.7733 4.22699C26.7999 3.26699 25.4799 2.68033 24.0133 2.66699C24.0266 2.66699 24.0133 2.66699 24.0133 2.66699Z" fill="#33835C"/>
</svg>
