<svg width="20" height="20" viewBox="0 0 20 20" fill="none" xmlns="http://www.w3.org/2000/svg">
<path d="M14.1667 2.9165H5.83342C3.33341 2.9165 1.66675 4.1665 1.66675 7.08317V12.9165C1.66675 15.8332 3.33341 17.0832 5.83342 17.0832H14.1667C16.6667 17.0832 18.3334 15.8332 18.3334 12.9165V7.08317C18.3334 4.1665 16.6667 2.9165 14.1667 2.9165ZM14.5584 7.9915L11.9501 10.0748C11.4001 10.5165 10.7001 10.7332 10.0001 10.7332C9.30008 10.7332 8.59175 10.5165 8.05008 10.0748L5.44175 7.9915C5.17508 7.77484 5.13341 7.37484 5.34175 7.10817C5.55841 6.8415 5.95008 6.7915 6.21675 7.00817L8.82508 9.0915C9.45842 9.59984 10.5334 9.59984 11.1667 9.0915L13.7751 7.00817C14.0417 6.7915 14.4417 6.83317 14.6501 7.10817C14.8667 7.37484 14.8251 7.77484 14.5584 7.9915Z" fill="#33835C"/>
</svg>
