<svg width="64" height="65" viewBox="0 0 64 65" fill="none" xmlns="http://www.w3.org/2000/svg">
<rect y="0.5" width="64" height="64" rx="32" fill="white" fill-opacity="0.12"/>
<path d="M32.0015 16.4551C23.1389 16.4551 15.957 23.639 15.957 32.4995C15.957 41.3601 23.1389 48.544 32.0015 48.544C40.864 48.544 48.0459 41.3601 48.0459 32.4995C48.0459 23.639 40.864 16.4551 32.0015 16.4551ZM39.4361 37.0983C39.8121 37.4743 40.0234 37.9844 40.0234 38.5162C40.0234 39.048 39.8121 39.5581 39.4361 39.9341C39.06 40.3102 38.55 40.5214 38.0181 40.5214C37.4863 40.5214 36.9763 40.3102 36.6002 39.9341L32.0015 35.3354L27.4027 39.9341C27.2169 40.121 26.996 40.2693 26.7526 40.3705C26.5093 40.4717 26.2484 40.5238 25.9848 40.5238C25.7213 40.5238 25.4603 40.4717 25.217 40.3705C24.9736 40.2693 24.7527 40.121 24.5669 39.9341C24.3805 39.748 24.2326 39.527 24.1317 39.2837C24.0308 39.0404 23.9789 38.7796 23.9789 38.5162C23.9789 38.2528 24.0308 37.992 24.1317 37.7487C24.2326 37.5054 24.3805 37.2844 24.5669 37.0983L29.1656 32.4995L24.5669 27.9008C24.1908 27.5247 23.9796 27.0147 23.9796 26.4829C23.9796 25.951 24.1908 25.441 24.5669 25.0649C24.9429 24.6889 25.453 24.4776 25.9848 24.4776C26.5166 24.4776 27.0267 24.6889 27.4027 25.0649L32.0015 29.6637L36.6002 25.0649C36.9763 24.6889 37.4863 24.4776 38.0181 24.4776C38.55 24.4776 39.06 24.6889 39.4361 25.0649C39.8121 25.441 40.0234 25.951 40.0234 26.4829C40.0234 27.0147 39.8121 27.5247 39.4361 27.9008L34.8373 32.4995L39.4361 37.0983Z" fill="white"/>
</svg>
