<svg width="32" height="32" viewBox="0 0 32 32" fill="none" xmlns="http://www.w3.org/2000/svg">
<path d="M28.2816 11.0526C28.6409 11.6444 28.1637 12.3337 27.4714 12.3337H3.6665C3.11422 12.3337 2.6665 11.8859 2.6665 11.3337V8.56033C2.6665 5.30699 5.3065 2.66699 8.55984 2.66699H11.6532C13.8265 2.66699 14.5065 3.37366 15.3732 4.53366L17.2398 7.01366C17.6532 7.56033 17.7065 7.62699 18.4798 7.62699H22.1998C24.7754 7.62699 27.034 8.99756 28.2816 11.0526Z" fill="#33835C"/>
<path d="M29.3099 15.3296C29.308 14.7787 28.8608 14.333 28.3099 14.333L3.66649 14.3334C3.11421 14.3335 2.6665 14.7812 2.6665 15.3334V22.2001C2.6665 26.1335 5.8665 29.3335 9.79984 29.3335H22.1998C26.1332 29.3335 29.3332 26.1335 29.3332 22.2001L29.3099 15.3296ZM19.1198 24.3735C18.9198 24.5601 18.6665 24.6668 18.4132 24.6668C18.1598 24.6668 17.8932 24.5601 17.7065 24.3735L16.0532 22.7201L14.3465 24.4268C14.1598 24.6135 13.8932 24.7201 13.6398 24.7201C13.3865 24.7201 13.1332 24.6135 12.9332 24.4268C12.5465 24.0401 12.5465 23.4001 12.9332 23.0135L14.6398 21.3068L12.9865 19.6535C12.5998 19.2668 12.5998 18.6268 12.9865 18.2401C13.3865 17.8535 14.0132 17.8535 14.3998 18.2401L16.0532 19.8935L17.6532 18.2935C18.0398 17.9068 18.6665 17.9068 19.0665 18.2935C19.4532 18.6935 19.4532 19.3201 19.0665 19.7068L17.4665 21.3068L19.1198 22.9601C19.5065 23.3468 19.5065 23.9868 19.1198 24.3735Z" fill="#33835C"/>
</svg>
