<svg width="32" height="32" viewBox="0 0 32 32" fill="none" xmlns="http://www.w3.org/2000/svg">
<path d="M28.1598 9.30699L22.6932 3.84033C22.0532 3.20033 20.7732 2.66699 19.8665 2.66699H12.1332C11.2265 2.66699 9.9465 3.20033 9.3065 3.84033L3.83984 9.30699C3.19984 9.94699 2.6665 11.227 2.6665 12.1337V19.867C2.6665 20.7737 3.19984 22.0537 3.83984 22.6937L9.3065 28.1603C9.9465 28.8003 11.2265 29.3337 12.1332 29.3337H19.8665C20.7732 29.3337 22.0532 28.8003 22.6932 28.1603L28.1598 22.6937C28.7998 22.0537 29.3332 20.7737 29.3332 19.867V12.1337C29.3332 11.227 28.7998 9.94699 28.1598 9.30699ZM21.3732 19.9603C21.7598 20.347 21.7598 20.987 21.3732 21.3737C21.1732 21.5737 20.9198 21.667 20.6665 21.667C20.4132 21.667 20.1598 21.5737 19.9598 21.3737L15.9998 17.4137L12.0398 21.3737C11.8398 21.5737 11.5865 21.667 11.3332 21.667C11.0798 21.667 10.8265 21.5737 10.6265 21.3737C10.2398 20.987 10.2398 20.347 10.6265 19.9603L14.5865 16.0003L10.6265 12.0403C10.2398 11.6537 10.2398 11.0137 10.6265 10.627C11.0132 10.2403 11.6532 10.2403 12.0398 10.627L15.9998 14.587L19.9598 10.627C20.3465 10.2403 20.9865 10.2403 21.3732 10.627C21.7598 11.0137 21.7598 11.6537 21.3732 12.0403L17.4132 16.0003L21.3732 19.9603Z" fill="#33835C"/>
</svg>
