<svg width="25" height="24" viewBox="0 0 25 24" fill="none" xmlns="http://www.w3.org/2000/svg">
<g clip-path="url(#clip0_1340_8005)">
<path d="M7.67969 -0.000976321H1.67969C1.48267 -0.00108806 1.28757 0.0376343 1.10553 0.112977C0.923492 0.188319 0.758088 0.298804 0.618778 0.438114C0.479468 0.577424 0.368983 0.742828 0.293641 0.924866C0.218298 1.10691 0.179576 1.30201 0.179688 1.49902V7.49902C0.179688 7.89685 0.337723 8.27838 0.619028 8.55968C0.900332 8.84099 1.28186 8.99902 1.67969 8.99902C2.07751 8.99902 2.45904 8.84099 2.74035 8.55968C3.02165 8.27838 3.17969 7.89685 3.17969 7.49902V2.99902H7.67969C8.07751 2.99902 8.45904 2.84099 8.74035 2.55968C9.02165 2.27838 9.17969 1.89685 9.17969 1.49902C9.17969 1.1012 9.02165 0.719668 8.74035 0.438363C8.45904 0.157059 8.07751 -0.000976321 7.67969 -0.000976321Z" fill="white"/>
<path d="M22.6797 -0.000976321H16.6797C16.2819 -0.000976321 15.9003 0.157059 15.619 0.438363C15.3377 0.719668 15.1797 1.1012 15.1797 1.49902C15.1797 1.89685 15.3377 2.27838 15.619 2.55968C15.9003 2.84099 16.2819 2.99902 16.6797 2.99902H21.1797V7.49902C21.1797 7.89685 21.3377 8.27838 21.619 8.55968C21.9003 8.84099 22.2819 8.99902 22.6797 8.99902C23.0775 8.99902 23.459 8.84099 23.7403 8.55968C24.0217 8.27838 24.1797 7.89685 24.1797 7.49902V1.49902C24.1798 1.30201 24.1411 1.10691 24.0657 0.924866C23.9904 0.742828 23.8799 0.577424 23.7406 0.438114C23.6013 0.298804 23.4359 0.188319 23.2538 0.112977C23.0718 0.0376343 22.8767 -0.00108806 22.6797 -0.000976321Z" fill="white"/>
<path d="M7.67969 20.999H3.17969V16.499C3.17969 16.1012 3.02165 15.7197 2.74035 15.4384C2.45904 15.1571 2.07751 14.999 1.67969 14.999C1.28186 14.999 0.900332 15.1571 0.619028 15.4384C0.337723 15.7197 0.179688 16.1012 0.179688 16.499V22.499C0.179576 22.696 0.218298 22.8911 0.293641 23.0732C0.368983 23.2552 0.479468 23.4206 0.618778 23.5599C0.758088 23.6992 0.923492 23.8097 1.10553 23.8851C1.28757 23.9604 1.48267 23.9991 1.67969 23.999H7.67969C8.07751 23.999 8.45904 23.841 8.74035 23.5597C9.02165 23.2784 9.17969 22.8968 9.17969 22.499C9.17969 22.1012 9.02165 21.7197 8.74035 21.4384C8.45904 21.1571 8.07751 20.999 7.67969 20.999Z" fill="white"/>
<path d="M22.6797 14.999C22.4827 14.9989 22.2876 15.0376 22.1055 15.113C21.9235 15.1883 21.7581 15.2988 21.6188 15.4381C21.4795 15.5774 21.369 15.7428 21.2936 15.9249C21.2183 16.1069 21.1796 16.302 21.1797 16.499V20.999H16.6797C16.2819 20.999 15.9003 21.1571 15.619 21.4384C15.3377 21.7197 15.1797 22.1012 15.1797 22.499C15.1797 22.8968 15.3377 23.2784 15.619 23.5597C15.9003 23.841 16.2819 23.999 16.6797 23.999H22.6797C22.8767 23.9991 23.0718 23.9604 23.2538 23.8851C23.4359 23.8097 23.6013 23.6992 23.7406 23.5599C23.8799 23.4206 23.9904 23.2552 24.0657 23.0732C24.1411 22.8911 24.1798 22.696 24.1797 22.499V16.499C24.1798 16.302 24.1411 16.1069 24.0657 15.9249C23.9904 15.7428 23.8799 15.5774 23.7406 15.4381C23.6013 15.2988 23.4359 15.1883 23.2538 15.113C23.0718 15.0376 22.8767 14.9989 22.6797 14.999Z" fill="white"/>
</g>
<defs>
<clipPath id="clip0_1340_8005">
<rect width="24" height="24" fill="white" transform="translate(0.179688 -0.000976562)"/>
</clipPath>
</defs>
</svg>
