<svg width="16" height="16" viewBox="0 0 16 16" fill="none" xmlns="http://www.w3.org/2000/svg">
<g clip-path="url(#clip0_1340_8650)">
<path d="M7.99999 11.9513C7.84843 11.9513 7.70309 11.8911 7.59593 11.784C7.48876 11.6768 7.42856 11.5314 7.42856 11.3799V2.83315C7.42856 2.6816 7.48876 2.53625 7.59593 2.42909C7.70309 2.32192 7.84843 2.26172 7.99999 2.26172C8.15154 2.26172 8.29688 2.32192 8.40405 2.42909C8.51121 2.53625 8.57142 2.6816 8.57142 2.83315V11.379C8.57154 11.4541 8.55684 11.5285 8.52818 11.5979C8.49952 11.6674 8.45745 11.7305 8.40437 11.7836C8.3513 11.8368 8.28826 11.879 8.21887 11.9077C8.14949 11.9365 8.07511 11.9513 7.99999 11.9513Z" fill="white"/>
<path d="M4.28366 6.49374C4.17072 6.49355 4.06037 6.45992 3.96653 6.39709C3.87268 6.33427 3.79953 6.24506 3.75631 6.14072C3.71309 6.03638 3.70172 5.92159 3.72366 5.8108C3.74559 5.70001 3.79983 5.5982 3.87955 5.5182L6.96572 2.43203C7.24003 2.1579 7.61197 2.00391 7.99977 2.00391C8.38758 2.00391 8.75952 2.1579 9.03383 2.43203L12.1205 5.5182C12.1736 5.57127 12.2158 5.63429 12.2446 5.70366C12.2734 5.77303 12.2883 5.8474 12.2883 5.92251C12.2884 5.99763 12.2737 6.07202 12.245 6.14144C12.2163 6.21086 12.1742 6.27395 12.1211 6.32711C12.0681 6.38027 12.0051 6.42246 11.9357 6.45126C11.8663 6.48007 11.7919 6.49492 11.7168 6.49499C11.6417 6.49505 11.5673 6.48032 11.4979 6.45163C11.4285 6.42295 11.3654 6.38087 11.3122 6.3278L8.22835 3.24026C8.19863 3.21054 8.16335 3.18696 8.12453 3.17088C8.0857 3.1548 8.04409 3.14652 8.00206 3.14652C7.96003 3.14652 7.91842 3.1548 7.87959 3.17088C7.84077 3.18696 7.80549 3.21054 7.77577 3.24026L4.68732 6.3278C4.63429 6.3807 4.57133 6.42259 4.50206 6.45107C4.43278 6.47955 4.35856 6.49405 4.28366 6.49374Z" fill="white"/>
<path d="M14.3706 15.7562H1.62911C1.2275 15.7559 0.842444 15.5962 0.558423 15.3123C0.274403 15.0283 0.11462 14.6433 0.114136 14.2417V10.2472C0.114136 10.0957 0.17434 9.95031 0.281503 9.84315C0.388667 9.73598 0.534012 9.67578 0.685564 9.67578C0.837117 9.67578 0.982462 9.73598 1.08963 9.84315C1.19679 9.95031 1.25699 10.0957 1.25699 10.2472V14.2417C1.25723 14.3403 1.29653 14.4348 1.36628 14.5044C1.43602 14.5741 1.53053 14.6133 1.62911 14.6134H14.3706C14.4692 14.6133 14.5637 14.5741 14.6334 14.5044C14.7032 14.4348 14.7425 14.3403 14.7427 14.2417V10.2472C14.7427 10.0957 14.8029 9.95031 14.9101 9.84315C15.0172 9.73598 15.1626 9.67578 15.3141 9.67578C15.4657 9.67578 15.611 9.73598 15.7182 9.84315C15.8254 9.95031 15.8856 10.0957 15.8856 10.2472V14.2417C15.8851 14.6433 15.7253 15.0283 15.4413 15.3123C15.1573 15.5962 14.7722 15.7559 14.3706 15.7562Z" fill="white"/>
</g>
<defs>
<clipPath id="clip0_1340_8650">
<rect width="16" height="16" fill="white"/>
</clipPath>
</defs>
</svg>
