<svg width="40" height="40" viewBox="0 0 40 40" fill="none" xmlns="http://www.w3.org/2000/svg">
<rect width="40" height="40" rx="20" fill="#33835C" fill-opacity="0.1"/>
<path d="M23.3332 13.5417C23.3332 14.5751 22.4915 15.4167 21.4582 15.4167H18.5415C18.0248 15.4167 17.5582 15.2084 17.2165 14.8667C16.8748 14.5251 16.6665 14.0584 16.6665 13.5417C16.6665 12.5084 17.5082 11.6667 18.5415 11.6667H21.4582C21.9748 11.6667 22.4415 11.8751 22.7832 12.2167C23.1248 12.5584 23.3332 13.0251 23.3332 13.5417Z" fill="#33835C"/>
<path d="M25.6918 14.1918C25.5002 14.0334 25.2835 13.9084 25.0502 13.8168C24.8085 13.7251 24.5668 13.9168 24.5168 14.1668C24.2335 15.5918 22.9752 16.6668 21.4585 16.6668H18.5418C17.7085 16.6668 16.9252 16.3418 16.3335 15.7501C15.9002 15.3168 15.6002 14.7668 15.4835 14.1751C15.4335 13.9251 15.1835 13.7251 14.9418 13.8251C13.9752 14.2168 13.3335 15.1001 13.3335 16.8751V25.0001C13.3335 27.5001 14.8252 28.3334 16.6668 28.3334H23.3335C25.1752 28.3334 26.6668 27.5001 26.6668 25.0001V16.8751C26.6668 15.5168 26.2918 14.6834 25.6918 14.1918ZM16.6668 20.2084H20.0002C20.3418 20.2084 20.6252 20.4918 20.6252 20.8334C20.6252 21.1751 20.3418 21.4584 20.0002 21.4584H16.6668C16.3252 21.4584 16.0418 21.1751 16.0418 20.8334C16.0418 20.4918 16.3252 20.2084 16.6668 20.2084ZM23.3335 24.7918H16.6668C16.3252 24.7918 16.0418 24.5084 16.0418 24.1668C16.0418 23.8251 16.3252 23.5418 16.6668 23.5418H23.3335C23.6752 23.5418 23.9585 23.8251 23.9585 24.1668C23.9585 24.5084 23.6752 24.7918 23.3335 24.7918Z" fill="#33835C"/>
</svg>
