<svg width="32" height="32" viewBox="0 0 32 32" fill="none" xmlns="http://www.w3.org/2000/svg">
<path d="M4 18.6L9.1358 21.85L12.9876 17.3L16.8395 22.5L19.4074 19.25L23.2592 19.9L19.4074 16L16.8395 19.25L12.9876 12.75L8.49382 17.625L4 13.4V4.2896C4 3.5915 4.57392 3 5.28138 3H18.1234V10.8C18.1234 11.1448 18.2587 11.4754 18.4995 11.7192C18.7403 11.963 19.0669 12.1 19.4074 12.1H27.1111V27.6909C27.1123 27.8616 27.0802 28.0309 27.0168 28.1891C26.9534 28.3473 26.8598 28.4912 26.7414 28.6128C26.623 28.7344 26.4821 28.8311 26.3268 28.8976C26.1715 28.964 26.0047 28.9988 25.8361 29H5.27496C4.93704 29 4.61295 28.8642 4.37388 28.6224C4.13482 28.3806 4.00034 28.0525 4 27.7104V18.6ZM27.1111 9.5H20.6913V3.0039L27.1111 9.5Z" fill="#33835C"/>
</svg>
