<svg width="40" height="40" viewBox="0 0 40 40" fill="none" xmlns="http://www.w3.org/2000/svg">
<rect width="40" height="40" rx="20" fill="#33835C" fill-opacity="0.1"/>
<path d="M23.3337 13.542C23.3337 14.5753 22.492 15.417 21.4587 15.417H18.542C18.0253 15.417 17.5587 15.2087 17.217 14.867C16.8753 14.5253 16.667 14.0587 16.667 13.542C16.667 12.5087 17.5087 11.667 18.542 11.667H21.4587C21.9753 11.667 22.442 11.8753 22.7837 12.217C23.1253 12.5587 23.3337 13.0253 23.3337 13.542Z" fill="#33835C"/>
<path d="M25.6913 14.1913C25.4997 14.0329 25.283 13.9079 25.0497 13.8163C24.808 13.7246 24.5663 13.9163 24.5163 14.1663C24.233 15.5913 22.9747 16.6663 21.458 16.6663H18.5413C17.708 16.6663 16.9247 16.3413 16.333 15.7496C15.8997 15.3163 15.5997 14.7663 15.483 14.1746C15.433 13.9246 15.183 13.7246 14.9413 13.8246C13.9747 14.2163 13.333 15.0996 13.333 16.8746V24.9996C13.333 27.4996 14.8247 28.3329 16.6663 28.3329H23.333C25.1747 28.3329 26.6663 27.4996 26.6663 24.9996V16.8746C26.6663 15.5163 26.2913 14.6829 25.6913 14.1913ZM16.6663 20.2079H19.9997C20.3413 20.2079 20.6247 20.4913 20.6247 20.8329C20.6247 21.1746 20.3413 21.4579 19.9997 21.4579H16.6663C16.3247 21.4579 16.0413 21.1746 16.0413 20.8329C16.0413 20.4913 16.3247 20.2079 16.6663 20.2079ZM23.333 24.7913H16.6663C16.3247 24.7913 16.0413 24.5079 16.0413 24.1663C16.0413 23.8246 16.3247 23.5413 16.6663 23.5413H23.333C23.6747 23.5413 23.958 23.8246 23.958 24.1663C23.958 24.5079 23.6747 24.7913 23.333 24.7913Z" fill="#33835C"/>
</svg>
