<svg width="40" height="40" viewBox="0 0 40 40" fill="none" xmlns="http://www.w3.org/2000/svg">
<rect width="40" height="40" rx="20" fill="#33835C" fill-opacity="0.1"/>
<path d="M12.1502 25.8416L12.1335 25.8583C11.9085 25.3666 11.7668 24.8083 11.7085 24.1917C11.7668 24.8 11.9252 25.35 12.1502 25.8416Z" fill="#33835C"/>
<path d="M17.4999 18.65C18.5953 18.65 19.4833 17.762 19.4833 16.6667C19.4833 15.5713 18.5953 14.6833 17.4999 14.6833C16.4046 14.6833 15.5166 15.5713 15.5166 16.6667C15.5166 17.762 16.4046 18.65 17.4999 18.65Z" fill="#33835C"/>
<path d="M23.4915 11.6667H16.5082C13.4748 11.6667 11.6665 13.4751 11.6665 16.5084V23.4917C11.6665 24.4001 11.8248 25.1917 12.1332 25.8584C12.8498 27.4417 14.3832 28.3334 16.5082 28.3334H23.4915C26.5248 28.3334 28.3332 26.5251 28.3332 23.4917V21.5834V16.5084C28.3332 13.4751 26.5248 11.6667 23.4915 11.6667ZM26.9748 20.4167C26.3248 19.8584 25.2748 19.8584 24.6248 20.4167L21.1582 23.3917C20.5082 23.9501 19.4582 23.9501 18.8082 23.3917L18.5248 23.1584C17.9332 22.6417 16.9915 22.5917 16.3248 23.0417L13.2082 25.1334C13.0248 24.6667 12.9165 24.1251 12.9165 23.4917V16.5084C12.9165 14.1584 14.1582 12.9167 16.5082 12.9167H23.4915C25.8415 12.9167 27.0832 14.1584 27.0832 16.5084V20.5084L26.9748 20.4167Z" fill="#33835C"/>
</svg>
