<svg width="40" height="40" viewBox="0 0 40 40" fill="none" xmlns="http://www.w3.org/2000/svg">
<rect width="40" height="40" rx="20" fill="#33835C" fill-opacity="0.1"/>
<g clip-path="url(#clip0_1365_15409)">
<path d="M27.1829 17.0413C26.3079 13.1913 22.9496 11.458 19.9996 11.458C19.9996 11.458 19.9996 11.458 19.9913 11.458C17.0496 11.458 13.6829 13.183 12.8079 17.033C11.8329 21.333 14.4663 24.9747 16.8496 27.2663C17.7329 28.1163 18.8663 28.5413 19.9996 28.5413C21.1329 28.5413 22.2663 28.1163 23.1413 27.2663C25.5246 24.9747 28.1579 21.3413 27.1829 17.0413ZM19.9996 21.2163C18.5496 21.2163 17.3746 20.0413 17.3746 18.5913C17.3746 17.1413 18.5496 15.9663 19.9996 15.9663C21.4496 15.9663 22.6246 17.1413 22.6246 18.5913C22.6246 20.0413 21.4496 21.2163 19.9996 21.2163Z" fill="#33835C"/>
</g>
<defs>
<clipPath id="clip0_1365_15409">
<rect width="20" height="20" fill="white" transform="translate(10 10)"/>
</clipPath>
</defs>
</svg>
