<svg width="32" height="32" viewBox="0 0 32 32" fill="none" xmlns="http://www.w3.org/2000/svg">
<path d="M22.6667 4.66699H9.33342C5.33341 4.66699 2.66675 6.66699 2.66675 11.3337V20.667C2.66675 25.3337 5.33341 27.3337 9.33342 27.3337H22.6667C26.6667 27.3337 29.3334 25.3337 29.3334 20.667V11.3337C29.3334 6.66699 26.6667 4.66699 22.6667 4.66699ZM10.6667 23.667H6.66675C6.12008 23.667 5.66675 23.2137 5.66675 22.667C5.66675 22.1203 6.12008 21.667 6.66675 21.667H10.6667C11.2134 21.667 11.6667 22.1203 11.6667 22.667C11.6667 23.2137 11.2134 23.667 10.6667 23.667ZM16.0001 20.0003C13.7867 20.0003 12.0001 18.2137 12.0001 16.0003C12.0001 13.787 13.7867 12.0003 16.0001 12.0003C18.2134 12.0003 20.0001 13.787 20.0001 16.0003C20.0001 18.2137 18.2134 20.0003 16.0001 20.0003ZM25.3334 10.3337H21.3334C20.7867 10.3337 20.3334 9.88033 20.3334 9.33366C20.3334 8.78699 20.7867 8.33366 21.3334 8.33366H25.3334C25.8801 8.33366 26.3334 8.78699 26.3334 9.33366C26.3334 9.88033 25.8801 10.3337 25.3334 10.3337Z" fill="#33835C"/>
</svg>
