<svg width="32" height="32" viewBox="0 0 32 32" fill="none" xmlns="http://www.w3.org/2000/svg">
<path d="M11.775 29C11.3898 29 11.0229 28.9278 10.6743 28.7833C10.3257 28.6389 10.0186 28.4343 9.75278 28.1694L3.83056 22.2472C3.56574 21.9824 3.36111 21.6752 3.21667 21.3257C3.07222 20.9761 3 20.6092 3 20.225V11.775C3 11.3898 3.07222 11.0229 3.21667 10.6743C3.36111 10.3257 3.56574 10.0186 3.83056 9.75278L9.75278 3.83056C10.0176 3.56574 10.3248 3.36111 10.6743 3.21667C11.0239 3.07222 11.3908 3 11.775 3H20.225C20.6102 3 20.9776 3.07222 21.3271 3.21667C21.6767 3.36111 21.9834 3.56574 22.2472 3.83056L28.1694 9.75278C28.4343 10.0176 28.6389 10.3248 28.7833 10.6743C28.9278 11.0239 29 11.3908 29 11.775V20.225C29 20.6102 28.9278 20.9776 28.7833 21.3271C28.6389 21.6767 28.4343 21.9834 28.1694 22.2472L22.2472 28.1694C21.9824 28.4343 21.6752 28.6389 21.3257 28.7833C20.9761 28.9278 20.6092 29 20.225 29H11.775ZM16 23.2222C16.4093 23.2222 16.7526 23.0836 17.0299 22.8062C17.3072 22.5289 17.4454 22.1861 17.4444 21.7778C17.4444 21.3685 17.3058 21.0252 17.0284 20.7479C16.7511 20.4706 16.4083 20.3324 16 20.3333C15.5907 20.3333 15.2474 20.472 14.9701 20.7493C14.6928 21.0267 14.5546 21.3695 14.5556 21.7778C14.5556 22.187 14.6942 22.5303 14.9716 22.8077C15.2489 23.085 15.5917 23.2232 16 23.2222ZM16 17.4444C16.4093 17.4444 16.7526 17.3058 17.0299 17.0284C17.3072 16.7511 17.4454 16.4083 17.4444 16V10.2222C17.4444 9.81296 17.3058 9.46967 17.0284 9.19233C16.7511 8.915 16.4083 8.77681 16 8.77778C15.5907 8.77778 15.2474 8.91644 14.9701 9.19378C14.6928 9.47111 14.5546 9.81393 14.5556 10.2222V16C14.5556 16.4093 14.6942 16.7526 14.9716 17.0299C15.2489 17.3072 15.5917 17.4454 16 17.4444Z" fill="#33835C"/>
</svg>
