<svg width="40" height="40" viewBox="0 0 40 40" fill="none" xmlns="http://www.w3.org/2000/svg">
<rect width="40" height="40" rx="20" fill="#33835C" fill-opacity="0.1"/>
<path d="M23.492 11.667H16.5087C13.4753 11.667 11.667 13.4753 11.667 16.5087V23.4837C11.667 26.5253 13.4753 28.3337 16.5087 28.3337H23.4837C26.517 28.3337 28.3253 26.5253 28.3253 23.492V16.5087C28.3337 13.4753 26.5253 11.667 23.492 11.667ZM23.642 21.9587L21.792 23.8087C21.342 24.2587 20.7587 24.4753 20.1753 24.4753C19.592 24.4753 19.0003 24.2503 18.5587 23.8087C18.1253 23.3753 17.8837 22.8003 17.8837 22.192C17.8837 21.5837 18.1253 21.0003 18.5587 20.5753L19.7337 19.4003C19.9753 19.1587 20.3753 19.1587 20.617 19.4003C20.8587 19.642 20.8587 20.042 20.617 20.2837L19.442 21.4587C19.242 21.6587 19.1337 21.917 19.1337 22.192C19.1337 22.467 19.242 22.7337 19.442 22.9253C19.8503 23.3337 20.5087 23.3337 20.917 22.9253L22.767 21.0753C23.8253 20.017 23.8253 18.3003 22.767 17.242C21.7087 16.1837 19.992 16.1837 18.9337 17.242L16.917 19.2587C16.492 19.6837 16.2587 20.242 16.2587 20.8337C16.2587 21.4253 16.492 21.992 16.917 22.4087C17.1587 22.6503 17.1587 23.0503 16.917 23.292C16.6753 23.5337 16.2753 23.5337 16.0337 23.292C15.367 22.6503 15.0003 21.7753 15.0003 20.842C15.0003 19.9087 15.3587 19.0337 16.017 18.3753L18.0337 16.3587C19.5753 14.817 22.092 14.817 23.6337 16.3587C25.1837 17.9003 25.1837 20.417 23.642 21.9587Z" fill="#33835C"/>
</svg>
