<svg width="20" height="20" viewBox="0 0 20 20" fill="none" xmlns="http://www.w3.org/2000/svg">
<path d="M10.0009 14.4584C10.7511 14.4584 11.3592 13.8502 11.3592 13.1C11.3592 12.3498 10.7511 11.7417 10.0009 11.7417C9.25072 11.7417 8.64258 12.3498 8.64258 13.1C8.64258 13.8502 9.25072 14.4584 10.0009 14.4584Z" fill="#33835C"/>
<path d="M15.2327 7.9415V6.89984C15.2327 4.64984 14.691 1.6665 9.99935 1.6665C5.30768 1.6665 4.76602 4.64984 4.76602 6.89984V7.9415C2.43268 8.23317 1.66602 9.4165 1.66602 12.3248V13.8748C1.66602 17.2915 2.70768 18.3332 6.12435 18.3332H13.8743C17.291 18.3332 18.3327 17.2915 18.3327 13.8748V12.3248C18.3327 9.4165 17.566 8.23317 15.2327 7.9415ZM9.99935 15.6165C8.60768 15.6165 7.48268 14.4832 7.48268 13.0998C7.48268 11.7082 8.61602 10.5832 9.99935 10.5832C11.3827 10.5832 12.516 11.7165 12.516 13.0998C12.516 14.4915 11.391 15.6165 9.99935 15.6165ZM6.12435 7.8665C6.05768 7.8665 5.99935 7.8665 5.93268 7.8665V6.89984C5.93268 4.45817 6.62435 2.83317 9.99935 2.83317C13.3743 2.83317 14.066 4.45817 14.066 6.89984V7.87484C13.9993 7.87484 13.941 7.87484 13.8743 7.87484H6.12435V7.8665Z" fill="#33835C"/>
</svg>
