<svg width="32" height="32" viewBox="0 0 32 32" fill="none" xmlns="http://www.w3.org/2000/svg">
<path d="M21.0401 2.66699H10.9601C5.92008 2.66699 4.66675 4.01366 4.66675 9.38699V24.4003C4.66675 27.947 6.61341 28.787 8.97341 26.2537L8.98675 26.2403C10.0801 25.0803 11.7467 25.1737 12.6934 26.4403L14.0401 28.2403C15.1201 29.667 16.8667 29.667 17.9467 28.2403L19.2934 26.4403C20.2534 25.1603 21.9201 25.067 23.0134 26.2403C25.3867 28.7737 27.3201 27.9337 27.3201 24.387V9.38699C27.3334 4.01366 26.0801 2.66699 21.0401 2.66699ZM20.0001 15.667H12.0001C11.4534 15.667 11.0001 15.2137 11.0001 14.667C11.0001 14.1203 11.4534 13.667 12.0001 13.667H20.0001C20.5467 13.667 21.0001 14.1203 21.0001 14.667C21.0001 15.2137 20.5467 15.667 20.0001 15.667ZM21.3334 10.3337H10.6667C10.1201 10.3337 9.66675 9.88033 9.66675 9.33366C9.66675 8.78699 10.1201 8.33366 10.6667 8.33366H21.3334C21.8801 8.33366 22.3334 8.78699 22.3334 9.33366C22.3334 9.88033 21.8801 10.3337 21.3334 10.3337Z" fill="#33835C"/>
</svg>
