<svg width="64" height="65" viewBox="0 0 64 65" fill="none" xmlns="http://www.w3.org/2000/svg">
<rect y="0.5" width="64" height="64" rx="32" fill="white" fill-opacity="0.12"/>
<path d="M24.4895 24.99C28.6199 20.8596 35.2938 20.8397 39.4508 24.9236L36.7148 27.6529C36.2566 28.1111 36.1238 28.7951 36.3695 29.3928C36.6152 29.9904 37.1996 30.3756 37.8438 30.3756H46.3438C47.227 30.3756 47.9375 29.665 47.9375 28.7818V20.2818C47.9375 19.6377 47.5523 19.0533 46.9547 18.8076C46.357 18.5619 45.673 18.6947 45.2148 19.1529L42.4523 21.9154C36.6352 16.1713 27.2652 16.1912 21.4812 21.9818C19.8609 23.6022 18.6922 25.508 17.975 27.5467C17.5832 28.6557 18.1676 29.8643 19.2699 30.2561C20.3723 30.6479 21.5875 30.0635 21.9793 28.9611C22.4906 27.5135 23.3207 26.1522 24.4895 24.99ZM16.0625 36.2193V44.7193C16.0625 45.3635 16.4477 45.9479 17.0453 46.1936C17.643 46.4393 18.327 46.3065 18.7852 45.8483L21.5477 43.0858C27.3648 48.8299 36.7348 48.81 42.5187 43.0193C44.1391 41.399 45.3145 39.4932 46.0316 37.4611C46.4234 36.3522 45.8391 35.1436 44.7367 34.7518C43.6344 34.36 42.4191 34.9443 42.0273 36.0467C41.516 37.4943 40.6859 38.8557 39.5172 40.0178C35.3867 44.1483 28.7129 44.1682 24.5559 40.0842L27.2852 37.3483C27.7434 36.89 27.8762 36.2061 27.6305 35.6084C27.3848 35.0108 26.8004 34.6256 26.1562 34.6256H17.6562C16.773 34.6256 16.0625 35.3361 16.0625 36.2193Z" fill="white"/>
</svg>
