<svg width="64" height="65" viewBox="0 0 64 65" fill="none" xmlns="http://www.w3.org/2000/svg">
<rect y="0.5" width="64" height="64" rx="32" fill="white" fill-opacity="0.12"/>
<path d="M36.2934 40.5561C36.6582 40.5561 36.9149 40.4531 37.2274 40.2977C37.3276 40.2482 37.3383 40.2634 37.2595 40.3433L30.9683 46.7155C30.9199 46.7651 30.8614 46.7898 30.7927 46.7898C27.7741 46.7876 24.7667 46.7865 21.7706 46.7865C21.2989 46.7865 20.8322 46.675 20.3706 46.4521C18.8962 45.736 17.3745 44.2734 17.3728 42.549C17.3694 35.0245 17.3711 27.5782 17.3778 20.2101C17.3795 18.43 19.2103 16.2767 21.0461 16.1027C21.4818 16.0611 21.8861 16.0419 22.2587 16.0453C26.1364 16.0825 30.0682 16.0875 34.0539 16.0605C34.1237 16.0594 34.1586 16.0943 34.1586 16.1652C34.1508 17.4172 34.1508 18.689 34.1586 19.9804C34.1705 21.6727 34.9203 23.4207 36.5434 24.0574C36.9419 24.2139 37.4503 24.2876 38.0684 24.2786C39.6211 24.2561 41.1028 24.2522 42.5136 24.2668C42.571 24.2668 42.5997 24.2961 42.5997 24.3546V34.9862C42.5997 35.0194 42.5933 35.0521 42.5809 35.0826C42.5684 35.113 42.5501 35.1405 42.5271 35.1635L38.2221 39.5225C38.1061 39.6408 38.0876 39.6273 38.1664 39.482C38.9365 38.065 37.7171 36.5349 36.1988 36.5332C32.1275 36.5287 27.9486 36.5276 23.6622 36.5298C23.2006 36.5298 22.7964 36.6565 22.4496 36.9098C21.5595 37.5601 21.2707 38.7963 21.9277 39.6847C22.4259 40.3602 23.0677 40.5697 23.8986 40.5697C28.1029 40.5652 32.2344 40.5606 36.2934 40.5561ZM38.3775 30.3249C38.3775 29.7985 38.1684 29.2938 37.7963 28.9216C37.4241 28.5495 36.9194 28.3404 36.393 28.3404H23.5676C23.0413 28.3404 22.5366 28.5495 22.1644 28.9216C21.7923 29.2938 21.5832 29.7985 21.5832 30.3249V30.4296C21.5832 30.9559 21.7923 31.4606 22.1644 31.8328C22.5366 32.2049 23.0413 32.414 23.5676 32.414H36.393C36.9194 32.414 37.4241 32.2049 37.7963 31.8328C38.1684 31.4606 38.3775 30.9559 38.3775 30.4296V30.3249Z" fill="white"/>
<path d="M37.5469 22.1555C36.797 22.1572 36.3782 20.8398 36.3697 20.2538C36.3472 18.8971 36.3393 17.5634 36.3461 16.2528C36.3461 16.1965 36.3737 16.1627 36.4288 16.1515C37.0723 16.0265 37.7006 16.4437 38.1887 16.8321C39.4835 17.8601 40.6651 18.9145 41.7336 19.9954C42.166 20.4322 42.4402 20.8128 42.5561 21.1371C42.6147 21.2992 42.6288 21.6105 42.5984 22.071C42.5939 22.1296 42.5623 22.1589 42.5038 22.1589C40.9748 22.1544 39.3225 22.1532 37.5469 22.1555Z" fill="white"/>
<path d="M43.8106 37.0998C43.8043 37.0932 43.8008 37.0844 43.8008 37.0753C43.8008 37.0662 43.8043 37.0574 43.8106 37.0508L44.3781 36.4648C44.666 36.1679 45.0686 36.0057 45.4974 36.014C45.9262 36.0222 46.3461 36.2001 46.6648 36.5087L47.109 36.9393C47.4277 37.2482 47.6191 37.6624 47.6409 38.0909C47.6628 38.5194 47.5134 38.9271 47.2255 39.2244L46.6581 39.8105C46.6548 39.8138 46.6508 39.8165 46.6465 39.8183C46.6421 39.8202 46.6374 39.8211 46.6327 39.8211C46.628 39.8211 46.6233 39.8202 46.619 39.8183C46.6146 39.8165 46.6107 39.8138 46.6074 39.8105L43.8106 37.0998Z" fill="white"/>
<path d="M35.0594 46.0073C35.2097 45.5631 35.4529 45.1781 35.7923 44.8437C38.2232 42.4466 40.4993 40.2206 42.6205 38.1658C42.6331 38.1534 42.6501 38.1465 42.6678 38.1465C42.6855 38.1465 42.7025 38.1534 42.7151 38.1658L45.4477 40.8444C45.4524 40.849 45.4561 40.8545 45.4586 40.8606C45.4611 40.8666 45.4624 40.8731 45.4624 40.8795C45.4624 40.886 45.4611 40.8923 45.4586 40.8982C45.4561 40.904 45.4524 40.9093 45.4477 40.9136C43.322 42.9673 41.1253 45.115 38.8577 47.3567C37.9626 48.2417 36.2213 48.669 34.9462 48.924C34.8043 48.9522 34.6698 48.9358 34.5426 48.875C34.5087 48.8588 34.4792 48.8347 34.4566 48.8047C34.4339 48.7748 34.4188 48.7398 34.4125 48.7028C34.3754 48.4798 34.3855 48.2586 34.4429 48.039C34.6141 47.3928 34.8195 46.7155 35.0594 46.0073Z" fill="white"/>
</svg>
