<svg width="32" height="32" viewBox="0 0 32 32" fill="none" xmlns="http://www.w3.org/2000/svg">
<path d="M29.2932 9.61366C28.9198 5.97366 26.0265 3.08033 22.3865 2.70699C22.1198 2.68033 21.8532 2.66699 21.5865 2.66699H10.4132C10.1465 2.66699 9.87984 2.68033 9.61317 2.70699C5.97317 3.08033 3.07984 5.97366 2.7065 9.61366C2.67984 9.88033 2.6665 10.147 2.6665 10.4137V21.587C2.6665 21.8537 2.67984 22.1203 2.7065 22.387C3.07984 26.027 5.97317 28.9203 9.61317 29.2937C9.87984 29.3203 10.1465 29.3337 10.4132 29.3337H18.6665C19.3998 29.3337 19.9998 28.7337 19.9998 28.0003V24.0403C19.9998 21.8137 21.8132 20.0003 24.0398 20.0003H27.9998C28.7332 20.0003 29.3332 19.4003 29.3332 18.667V10.4137C29.3332 10.147 29.3198 9.88033 29.2932 9.61366ZM10.3332 18.0003C10.3332 18.547 9.87984 19.0003 9.33317 19.0003C8.7865 19.0003 8.33317 18.547 8.33317 18.0003V14.0003C8.33317 13.4537 8.7865 13.0003 9.33317 13.0003C9.87984 13.0003 10.3332 13.4537 10.3332 14.0003V18.0003ZM16.9998 18.0003C16.9998 18.547 16.5465 19.0003 15.9998 19.0003C15.4532 19.0003 14.9998 18.547 14.9998 18.0003V14.0003C14.9998 13.4537 15.4532 13.0003 15.9998 13.0003C16.5465 13.0003 16.9998 13.4537 16.9998 14.0003V18.0003Z" fill="#33835C"/>
<path d="M27.9602 21.333H24.0402C22.3468 21.333 21.3335 22.3463 21.3335 24.0397V27.9597C21.3335 29.653 22.3468 30.6663 24.0402 30.6663H27.9602C29.6535 30.6663 30.6668 29.653 30.6668 27.9597V24.0397C30.6668 22.3463 29.6535 21.333 27.9602 21.333ZM28.6268 27.413C28.9602 27.7463 28.9602 28.293 28.6268 28.6263C28.4535 28.7863 28.2268 28.8663 28.0135 28.8663C27.8002 28.8663 27.5735 28.7863 27.4002 28.6263L25.9868 27.213L24.6002 28.6263C24.4268 28.7863 24.2135 28.8663 23.9735 28.8663C23.7735 28.8663 23.5468 28.7863 23.3868 28.6263C23.0535 28.293 23.0535 27.7463 23.3868 27.413L24.8002 25.9997L23.3868 24.5997C23.0535 24.2663 23.0535 23.7197 23.3868 23.3863C23.7202 23.053 24.2668 23.053 24.6002 23.3863L25.9868 24.7997L27.4002 23.3863C27.7335 23.053 28.2935 23.053 28.6268 23.3863C28.9602 23.7197 28.9602 24.2663 28.6268 24.5997L27.2135 25.9997L28.6268 27.413Z" fill="#33835C"/>
</svg>
