<svg width="20" height="20" viewBox="0 0 20 20" fill="none" xmlns="http://www.w3.org/2000/svg">
<path d="M17.7087 7.62409C15.7837 4.59909 12.967 2.85742 10.0003 2.85742C8.51699 2.85742 7.07533 3.29076 5.75866 4.09909C4.44199 4.91576 3.25866 6.10742 2.29199 7.62409C1.45866 8.93242 1.45866 11.0574 2.29199 12.3658C4.21699 15.3991 7.03366 17.1324 10.0003 17.1324C11.4837 17.1324 12.9253 16.6991 14.242 15.8908C15.5587 15.0741 16.742 13.8824 17.7087 12.3658C18.542 11.0658 18.542 8.93242 17.7087 7.62409ZM10.0003 13.3658C8.13366 13.3658 6.63366 11.8574 6.63366 9.99909C6.63366 8.14076 8.13366 6.63242 10.0003 6.63242C11.867 6.63242 13.367 8.14076 13.367 9.99909C13.367 11.8574 11.867 13.3658 10.0003 13.3658Z" fill="black" fill-opacity="0.7"/>
<path d="M10 7.61719C8.69167 7.61719 7.625 8.68385 7.625 10.0005C7.625 11.3089 8.69167 12.3755 10 12.3755C11.3083 12.3755 12.3833 11.3089 12.3833 10.0005C12.3833 8.69219 11.3083 7.61719 10 7.61719Z" fill="black" fill-opacity="0.7"/>
</svg>
