<svg width="40" height="40" viewBox="0 0 40 40" fill="none" xmlns="http://www.w3.org/2000/svg">
<rect width="40" height="40" rx="20" fill="#33835C" fill-opacity="0.1"/>
<path d="M24.167 12.5H15.8337C13.5337 12.5 11.667 14.3667 11.667 16.6667V17.5V23.3333C11.667 25.6333 13.5337 27.5 15.8337 27.5H23.3337H24.167C26.467 27.5 28.3337 25.6333 28.3337 23.3333V16.6667C28.3337 14.3667 26.467 12.5 24.167 12.5ZM18.742 24.0083C18.717 24.0083 18.692 24.0167 18.6587 24.0167C18.3503 24.0167 18.0837 23.7833 18.042 23.475C17.9337 22.625 17.317 22.0083 16.467 21.9C16.1253 21.8583 15.8837 21.5417 15.9253 21.2C15.967 20.8583 16.2837 20.6167 16.6253 20.6583C18.0337 20.8417 19.1003 21.9083 19.2837 23.3167C19.3253 23.65 19.0837 23.9667 18.742 24.0083ZM21.2837 23.5833C21.2587 23.5833 21.2337 23.5917 21.2003 23.5917C20.892 23.5917 20.6253 23.3583 20.5837 23.05C20.3253 21.0667 18.8837 19.6167 16.892 19.3583C16.5503 19.3167 16.3087 19 16.3503 18.6583C16.392 18.3167 16.7087 18.075 17.0503 18.1167C19.617 18.45 21.492 20.3167 21.8253 22.8917C21.867 23.225 21.6253 23.5333 21.2837 23.5833ZM23.5337 22.8583C23.5087 22.8583 23.4837 22.8667 23.4503 22.8667C23.142 22.8667 22.8753 22.6333 22.8337 22.325C22.4753 19.5083 20.4253 17.4583 17.6087 17.1C17.267 17.0583 17.0253 16.7417 17.067 16.4C17.1087 16.0583 17.4253 15.8167 17.767 15.8583C21.1587 16.2917 23.6337 18.7667 24.0753 22.1667C24.117 22.5083 23.8753 22.8167 23.5337 22.8583Z" fill="#33835C"/>
</svg>
